<svg xmlns="http://www.w3.org/2000/svg" width="20" height="20" viewBox="0 0 80 80" fill="none"><path d="M27.8 58.4c-4.2 0-7.8-2.2-10.6-6.1C13.8 47.5 12 41 12 34.6c0-5.3 1.2-9.5 3.5-12.3 2-2.4 4.6-3.7 7.5-3.7 2.2 0 4.7.9 7.3 3.3 2.2 2 4.4 4.9 6.7 8.8l3.2 5.6c2 3.4 3.6 5.8 5 7.3 1.8 2 3.6 2.9 5.5 2.9 2.2 0 4-1.1 5.3-3.2 1.4-2.3 2.1-5.3 2.1-9 0-5.4-1.4-10.7-4.1-15.2-3-5-7-7.5-11.7-7.5-2.3 0-4.5.8-6.5 2.3-2.1 1.6-4.3 4.2-6.7 7.7l-2.2-1.5c2.6-3.8 5-6.5 7.4-8.3 2.5-1.9 5.3-2.8 8.2-2.8 5.9 0 10.9 3 14.8 8.8 3.4 5.1 5.2 11.2 5.2 17.8 0 4.8-1 8.7-3 11.4-1.9 2.6-4.5 4-7.5 4-2.2 0-4.4-.8-6.4-2.5-1.7-1.4-3.6-3.9-5.7-7.4l-3.4-5.7c-2.3-3.9-4.3-6.6-6-8.2-1.9-1.8-3.9-2.7-5.8-2.7-2.2 0-4 1.2-5.2 3.5-1.2 2.2-1.8 5.2-1.8 8.8 0 5.8 1.5 11.4 4.4 16 2.4 3.6 5.1 5.4 8.2 5.4h.2l.1 2.7h-.3z" fill="#0081FB"/></svg>
